<svg width="38" height="39" viewBox="0 0 38 39" fill="none" xmlns="http://www.w3.org/2000/svg">
<rect x="0.948242" y="0.888885" width="36.9948" height="37.2222" rx="6" fill="#DDFEE6"/>
<path fill-rule="evenodd" clip-rule="evenodd" d="M28.8657 28.4333H22.7615C21.8572 28.4333 21.0282 28.0611 20.35 27.4655L10.7793 18.0111L16.0545 12.0555C16.0545 14.9589 19.1442 18.0111 22.0833 18.0111H22.8369C22.7615 21.3611 24.0426 23.8178 27.3585 24.86C27.5845 24.9344 27.7353 25.0089 27.9613 25.0089C28.8657 25.2322 29.4685 26.2 29.2425 27.0933L28.8657 28.4333Z" fill="#DDFEE6" stroke="#01BA88" stroke-linecap="round" stroke-linejoin="round"/>
<path fill-rule="evenodd" clip-rule="evenodd" d="M9.27197 19.5L19.5963 29.6989C20.1991 30.2944 21.1035 30.6667 22.0078 30.6667H28.8655" fill="#DDFEE6"/>
<path d="M9.27197 19.5L19.5963 29.6989C20.1991 30.2944 21.1035 30.6667 22.0078 30.6667H28.8655" stroke="#01BA88" stroke-linecap="round" stroke-linejoin="round"/>
<ellipse cx="16.4312" cy="19.1278" rx="1.1304" ry="1.11667" stroke="#01BA88" stroke-linecap="round" stroke-linejoin="round"/>
<path fill-rule="evenodd" clip-rule="evenodd" d="M19.8225 21.7333H23.2137H19.8225Z" fill="#DDFEE6"/>
<path d="M19.8225 21.7333H23.2137" stroke="#01BA88" stroke-linecap="round" stroke-linejoin="round"/>
<path fill-rule="evenodd" clip-rule="evenodd" d="M21.3296 23.9667H25.4744H21.3296Z" fill="#DDFEE6"/>
<path d="M21.3296 23.9667H25.4744" stroke="#01BA88" stroke-linecap="round" stroke-linejoin="round"/>
<path fill-rule="evenodd" clip-rule="evenodd" d="M29.6192 8.33333L24.1179 13.7678C22.8368 15.0333 22.3846 16.82 22.8368 18.5322" fill="#DDFEE6"/>
<path d="M29.6192 8.33333L24.1179 13.7678C22.8368 15.0333 22.3846 16.82 22.8368 18.5322V18.5322" stroke="#01BA88" stroke-linecap="round" stroke-linejoin="round"/>
<path fill-rule="evenodd" clip-rule="evenodd" d="M16.0544 12.8C17.4863 12.3533 18.7674 11.3111 19.521 10.0456L20.576 8.33333" fill="#DDFEE6"/>
<path d="M16.0544 12.8V12.8C17.4863 12.3533 18.7674 11.3111 19.521 10.0456L20.576 8.33333" stroke="#01BA88" stroke-linecap="round" stroke-linejoin="round"/>
</svg>
