<?xml version="1.0" encoding="utf-8"?>
<!-- Generator: Adobe Illustrator 16.0.0, SVG Export Plug-In . SVG Version: 6.00 Build 0)  -->
<!DOCTYPE svg PUBLIC "-//W3C//DTD SVG 1.1//EN" "http://www.w3.org/Graphics/SVG/1.1/DTD/svg11.dtd">
<svg version="1.1" id="Layer_1" xmlns="http://www.w3.org/2000/svg" xmlns:xlink="http://www.w3.org/1999/xlink" x="0px" y="0px"
	 width="500px" height="500px" viewBox="6 6 500 500" enable-background="new 6 6 500 500" xml:space="preserve">
<title></title>
<path d="M472,178c-9.998-0.325-19.498,4.365-25.32,12.5c-0.632,0.906-1.879,1.127-2.784,0.495c-0.535-0.373-0.854-0.983-0.855-1.635
	v-36.65c0-20.75-16.34-38.21-37.08-38.7c-20.98-0.53-38.418,16.048-38.948,37.028c-0.008,0.32-0.012,0.641-0.012,0.962v82
	c0,1.104-0.896,2-2,2H157c-1.104,0-2-0.896-2-2v-81.29c0-20.75-16.34-38.21-37.08-38.7c-20.98-0.508-38.401,16.088-38.909,37.069
	C79.004,151.386,79,151.693,79,152v37.38c-0.002,1.104-0.9,1.998-2.005,1.996c-0.652-0.002-1.262-0.321-1.635-0.855
	C69.535,182.365,60.016,177.666,50,178c-16.3,0.51-29,14.31-29,30.62v98.72c0,16.311,12.74,30.11,29,30.62
	c9.998,0.325,19.498-4.365,25.32-12.5c0.598-0.929,1.836-1.196,2.765-0.599c0.595,0.383,0.943,1.052,0.916,1.759v36.67
	C79,384,95.34,401.5,116.08,402c20.98,0.508,38.401-16.088,38.909-37.068c0.008-0.311,0.011-0.621,0.011-0.932v-82
	c0-1.104,0.896-2,2-2h208c1.104,0,2,0.896,2,2v81.29c0,20.75,16.34,38.21,37.08,38.7c20.98,0.508,38.4-16.088,38.909-37.069
	c0.007-0.307,0.011-0.614,0.011-0.921v-37.38c0.003-1.104,0.9-1.998,2.005-1.995c0.651,0.001,1.262,0.32,1.635,0.855
	c5.825,8.154,15.345,12.854,25.36,12.52c16.3-0.51,29-14.311,29-30.62v-98.74C501,192.33,488.26,178.53,472,178z"/>
</svg>
