<?xml version="1.0" encoding="utf-8"?>
<!-- Generator: Adobe Illustrator 16.0.0, SVG Export Plug-In . SVG Version: 6.00 Build 0)  -->
<!DOCTYPE svg PUBLIC "-//W3C//DTD SVG 1.1//EN" "http://www.w3.org/Graphics/SVG/1.1/DTD/svg11.dtd">
<svg version="1.1" id="Layer_1" xmlns="http://www.w3.org/2000/svg" xmlns:xlink="http://www.w3.org/1999/xlink" x="0px" y="0px"
	 width="500px" height="500px" viewBox="0 0 500 500" enable-background="new 0 0 500 500" xml:space="preserve">
<path fill-rule="evenodd" clip-rule="evenodd" d="M65.345,237.009c0-3.257,0-6.513,0-9.77c2.999-3.256,5.6-7.028,9.056-9.69
	c53.151-40.937,106.42-81.721,159.644-122.562c14.229-10.918,31.496-10.93,45.703-0.117c41.129,31.302,82.302,62.546,123.454,93.814
	c13.353,10.146,26.766,20.212,40.02,30.483c5.85,4.533,7.646,11.355,5.257,17.798c-2.298,6.198-7.701,9.754-14.946,9.792
	c-4.988,0.026-9.977,0.005-15.421,0.005c0,1.771,0,3.244,0,4.717c-0.001,30.43,0.074,60.859-0.021,91.289
	c-0.109,34.69-25.955,62.169-60.564,64.108c-11.112,0.623-22.281,0.271-33.425,0.269c-12.074-0.002-18.261-6.233-18.262-18.249
	c-0.003-25.17,0-50.34-0.003-75.511c-0.003-19.396-19.629-35.597-38.69-34.501c-9.986,0.574-7.035-0.058-17.046,0.215
	c-3.421,0.093-15.983,0.836-19.189,2.05c-12.897,4.885-21.24,17.706-21.274,32.438c-0.059,25.421-0.011,50.841-0.02,76.262
	c-0.004,11.33-5.651,17.118-16.989,17.29c-6.635,0.101-13.274,0.1-19.91-0.001c-6.755-0.103-13.591,0.228-20.246-0.69
	c-30.404-4.19-56.043-30.793-55.265-65.403c0.673-29.913,0.14-59.854,0.14-89.783c0-1.435,0-2.869,0-4.498
	c-4.761,0-8.902-0.235-13.007,0.049C75.941,247.397,69.501,244.491,65.345,237.009z"/>
</svg>
