<svg width="124" height="287" viewBox="0 0 124 287" fill="none" xmlns="http://www.w3.org/2000/svg">
<path d="M63.7021 163.758C63.2714 168.711 66.7142 194.93 68.4909 205.21C69.3367 210.081 71.656 218.016 70.8215 222.229C69.63 228.101 69.2857 235.7 69.9417 240.125C70.3554 242.812 71.6574 255.205 69.7943 259.738C68.8196 262.115 67.033 274.297 67.033 274.297C62.3788 285.773 65.0055 285.208 65.0055 285.208C66.4464 286.935 68.9145 285.344 68.9145 285.344C70.7946 286.514 72.0966 285.066 72.0966 285.066C73.7104 286.371 75.5919 284.905 75.5919 284.905C77.6193 285.933 79.4995 284.038 79.4995 284.038C80.6641 284.611 80.9488 283.887 80.9488 283.887C84.4427 283.668 78.9993 272.749 78.9993 272.749C77.6959 262.941 80.2929 257.483 80.2929 257.483C88.7994 232.847 89.2315 226.309 85.8311 217.025C84.8734 214.345 84.6311 213.284 85.0717 212.12C86.0904 209.434 85.348 198.632 86.5906 194.343C88.9878 186.07 91.3524 165.09 92.5851 155.301C94.2413 142.115 86.7181 124.434 86.7181 124.434C85.0703 117.24 87.486 91.6048 87.486 91.6048C90.8594 96.7312 90.7305 105.78 90.7305 105.78C90.1949 115.271 98.581 129.775 98.581 129.775C102.61 135.769 104.136 141.456 104.136 141.878C104.136 143.605 103.749 147.785 103.749 147.785L103.904 151.425C103.973 152.352 104.507 155.544 104.421 157.087C103.792 166.582 105.336 164.795 105.336 164.795C106.64 164.795 108.072 157.155 108.072 157.155C108.072 159.125 107.579 165.024 108.667 167.249C109.969 169.902 110.927 166.793 110.944 166.169C111.288 154.08 112.032 157.248 112.032 157.248C112.756 167.055 113.646 169.27 115.241 168.504C116.45 167.94 115.345 156.734 115.345 156.734C117.415 163.391 118.984 164.451 118.984 164.451C122.4 166.793 120.288 160.323 119.813 159.042C117.286 152.235 117.208 149.876 117.208 149.876C120.366 155.993 122.746 155.766 122.746 155.766C125.826 154.805 120.054 146.144 116.672 141.994C114.946 139.88 112.721 137.049 112.075 135.368C111.022 132.521 110.227 123.366 110.227 123.366C109.908 112.564 107.174 107.872 107.174 107.872C102.498 100.564 101.619 86.9308 101.619 86.9308L101.412 63.9139C100.5 49.0001 87.9266 48.1003 87.9266 48.1003C75.9532 46.3596 74.287 42.5823 74.287 42.5823C71.751 39.018 73.2003 32.1856 73.2003 32.1856C75.3043 30.5142 76.1161 26.0768 76.1161 26.0768C79.61 23.4603 79.4385 19.6318 77.8248 19.6733C76.5298 19.7065 76.8231 18.6591 76.8231 18.6591C79.0078 1.42443 63.3408 0.544434 63.3408 0.544434H60.9492C60.9492 0.544434 45.2751 1.42443 47.457 18.6549C47.457 18.6549 47.7503 19.7037 46.444 19.6692C44.8345 19.6276 44.6843 23.4562 48.1654 26.0727C48.1654 26.0727 48.9758 30.5086 51.0812 32.1814C51.0812 32.1814 52.5306 39.0139 49.9945 42.5781C49.9945 42.5781 48.334 46.3555 36.3549 48.0961C36.3549 48.0961 24.4892 48.2096 22.8755 63.9098L22.6516 86.9267C22.6516 86.9267 21.7888 100.56 17.0949 107.868C17.0949 107.868 14.3732 112.561 14.0587 123.362C14.0587 123.362 13.261 132.516 12.2126 135.364C11.5736 137.037 9.34923 139.868 7.6094 141.99C4.19773 146.131 -1.53607 154.775 1.53131 155.762C1.53131 155.762 3.92429 155.988 7.06959 149.871C7.06959 149.871 7.00442 152.214 4.48109 159.038C3.98521 160.303 1.87559 166.773 5.29292 164.447C5.29292 164.447 6.87549 163.385 8.93269 156.73C8.93269 156.73 7.829 167.936 9.05737 168.499C10.6626 169.267 11.5382 167.051 12.2622 157.243C12.2622 157.243 13.0046 154.076 13.3489 166.165C13.3659 166.789 14.3024 169.898 15.6101 167.244C16.7138 165.02 16.2179 159.131 16.2179 157.151C16.2179 157.151 17.6333 164.791 18.9566 164.791C18.9566 164.791 20.5136 166.578 19.8747 157.083C19.7712 155.532 20.328 152.348 20.3975 151.421L20.5477 147.781C20.5477 147.781 20.1594 143.61 20.1594 141.874C20.1594 141.444 21.6868 135.765 25.7147 129.771C25.7147 129.771 34.0923 115.26 33.5525 105.776C33.5525 105.776 33.4363 96.727 36.8097 91.6006C36.8097 91.6006 39.2041 117.234 37.5819 124.43C37.5819 124.43 30.0459 142.111 31.7078 155.297C32.9319 165.112 35.2923 186.065 37.6952 194.339C38.9505 198.62 38.2081 209.419 39.214 212.116C39.6674 213.288 39.4294 214.367 38.4546 217.021C35.0727 226.305 35.5034 232.844 44.0099 257.479C44.0099 257.479 46.6282 262.937 45.3049 272.744C45.3049 272.744 39.87 283.664 43.3511 283.883C43.3511 283.883 43.6231 284.606 44.8005 284.034C44.8005 284.034 46.6806 285.929 48.7123 284.901C48.7123 284.901 50.5938 286.368 52.2019 285.062C52.2019 285.062 53.4912 286.51 55.3713 285.34C55.3713 285.34 57.8394 286.966 59.3057 285.204C59.3057 285.204 61.9112 285.769 57.2726 274.293C57.2726 274.293 55.496 262.126 54.5169 259.734C52.6496 255.203 53.9686 242.783 54.3668 240.121C55.0086 235.671 54.6643 228.09 53.4912 222.225C52.6326 218.021 54.9576 210.085 55.8162 205.206C57.5801 194.935 61.0371 168.715 60.605 163.753L62.0331 164.243C63.056 164.246 63.7021 163.758 63.7021 163.758Z" fill="#9AB0A6"/>
</svg>
