<svg width="14" height="18" viewBox="0 0 14 18" fill="none" xmlns="http://www.w3.org/2000/svg">
<g opacity="0.4">
<path fill-rule="evenodd" clip-rule="evenodd" d="M7.00001 0.873001C4.95801 0.873001 3.28801 2.526 3.25401 4.56C3.25101 4.581 3.25001 4.602 3.25001 4.623V5.294C3.20762 5.2966 3.16247 5.29824 3.11707 5.29988H3.11706C3.04036 5.30266 2.96296 5.30546 2.89701 5.313C2.31001 5.379 1.79301 5.523 1.41201 5.904C1.03001 6.285 0.886006 6.802 0.819006 7.39C0.755784 7.95326 0.755876 8.62937 0.755996 9.50802L0.756006 9.625V12.657C0.752006 12.688 0.750006 12.719 0.750006 12.75L0.750003 12.8291C0.749948 13.7262 0.749906 14.4137 0.815006 14.985C0.881006 15.573 1.02501 16.089 1.40701 16.47C1.78801 16.852 2.30501 16.995 2.89201 17.061C3.4631 17.1251 4.14928 17.1251 5.04491 17.125L5.12501 17.125H5.13101H8.87501C8.88089 17.125 8.88677 17.1248 8.89276 17.1245C8.89901 17.1243 8.90538 17.124 8.91201 17.124H8.95298C9.84706 17.124 10.5377 17.124 11.108 17.06C11.695 16.994 12.211 16.851 12.593 16.469C12.975 16.088 13.119 15.572 13.185 14.984C13.25 14.4057 13.25 13.707 13.25 12.7942V12.7941V12.753V12.749V9.628V9.627V9.625L13.25 9.54595V9.54587C13.2501 8.64875 13.2501 7.96132 13.185 7.39C13.119 6.802 12.975 6.285 12.593 5.904C12.211 5.523 11.695 5.379 11.108 5.313C11.043 5.30571 10.9672 5.30248 10.892 5.29927L10.8919 5.29927C10.8434 5.2972 10.7951 5.29514 10.75 5.292V4.623C10.75 4.6 10.749 4.576 10.746 4.553C10.708 2.522 9.03901 0.873001 7.00001 0.873001ZM7.00001 2.123C8.38701 2.123 9.50001 3.237 9.50001 4.623V5.253C9.40622 5.253 9.3174 5.25229 9.22607 5.25156H9.22604C9.12943 5.25079 9.03003 5.25 8.91901 5.25L8.91636 5.24982C8.90235 5.24889 8.88912 5.248 8.87501 5.248H5.13101C5.11987 5.248 5.10873 5.24886 5.09679 5.24979L5.09401 5.25C4.98033 5.25 4.87856 5.25079 4.77972 5.25157C4.68639 5.25229 4.59568 5.253 4.50001 5.253V4.623C4.50001 3.237 5.61301 2.123 7.00001 2.123ZM8.83101 6.498H5.16201L5.16101 6.499C5.15601 6.499 5.15101 6.49925 5.14601 6.4995C5.14101 6.49975 5.13601 6.5 5.13101 6.5C4.19601 6.5 3.50301 6.504 3.03701 6.556C2.57101 6.608 2.38401 6.7 2.29501 6.788C2.20701 6.876 2.11501 7.064 2.06201 7.53C2.01001 7.996 2.00601 8.689 2.00601 9.625V12.75C2.00601 12.779 2.00501 12.808 2.00101 12.838C2.00101 13.723 2.00501 14.395 2.05601 14.844C2.10901 15.311 2.20101 15.498 2.28901 15.587C2.37801 15.675 2.56501 15.766 3.03101 15.819C3.49701 15.871 4.19001 15.875 5.12501 15.875H5.13101H8.84301C8.84851 15.8745 8.85376 15.8743 8.85901 15.874C8.86426 15.8738 8.86951 15.8735 8.87501 15.873C9.80901 15.873 10.502 15.871 10.968 15.819C11.434 15.766 11.622 15.674 11.711 15.585C11.799 15.497 11.891 15.309 11.944 14.843C11.996 14.378 12 13.686 12 12.753V9.628V9.626V9.625C12 8.689 11.996 7.996 11.944 7.53C11.891 7.064 11.799 6.876 11.711 6.788C11.622 6.699 11.434 6.608 10.968 6.556C10.502 6.504 9.80901 6.5 8.87501 6.5C8.86089 6.5 8.84766 6.49912 8.83365 6.49818L8.83101 6.498Z" fill="#8A8D90"/>
<path fill-rule="evenodd" clip-rule="evenodd" d="M7.002 8.998C6.67 8.998 6.352 9.13 6.117 9.364C5.882 9.599 5.75 9.918 5.75 10.25C5.75 10.47 5.808 10.686 5.918 10.876C6.029 11.066 6.187 11.224 6.377 11.334V12.75C6.376 12.833 6.391 12.915 6.422 12.992C6.453 13.069 6.499 13.139 6.557 13.198C6.615 13.257 6.685 13.304 6.761 13.336C6.838 13.368 6.92 13.384 7.002 13.384C7.085 13.384 7.167 13.368 7.244 13.336C7.32 13.304 7.389 13.257 7.447 13.198C7.506 13.139 7.551 13.069 7.582 12.992C7.613 12.915 7.629 12.833 7.627 12.75V11.333C7.818 11.223 7.976 11.065 8.086 10.875C8.196 10.685 8.254 10.47 8.255 10.25C8.255 9.918 8.123 9.599 7.888 9.364C7.653 9.13 7.335 8.998 7.002 8.998Z" fill="#8A8D90"/>
</g>
</svg>
