<?xml version="1.0" encoding="utf-8"?>
<!-- Generator: Adobe Illustrator 16.0.0, SVG Export Plug-In . SVG Version: 6.00 Build 0)  -->
<!DOCTYPE svg PUBLIC "-//W3C//DTD SVG 1.1//EN" "http://www.w3.org/Graphics/SVG/1.1/DTD/svg11.dtd">
<svg version="1.1" id="Layer_1" xmlns="http://www.w3.org/2000/svg" xmlns:xlink="http://www.w3.org/1999/xlink" x="0px" y="0px"
	 width="500px" height="500px" viewBox="0 0 500 500" enable-background="new 0 0 500 500" xml:space="preserve">
<g id="info">
</g>
<path fill-rule="evenodd" clip-rule="evenodd" d="M470.665,257.226c0.207,102.152-73.574,191.19-173.944,209.912
	C180.056,488.896,67.264,410.908,47.58,293.479c-11.835-70.604,7.095-132.994,56.641-185.221c8.878-9.358,20.898-13.356,33.91-9.361
	c12.428,3.816,20.309,12.538,22.778,25.435c2.288,11.947-2.811,21.494-11.111,29.525c-12.471,12.068-22.509,25.845-29.843,41.556
	C78.39,284.458,133.162,388.43,230.133,404.609c74.501,12.431,145.67-30.104,167.365-101.994
	c16.544-54.823,5.539-104.474-33.309-147.573c-14.862-16.487-13.987-35.314-0.643-48.35c13.062-12.76,33.921-12.41,46.634,0.678
	C449.556,147.904,470.549,199.918,470.665,257.226z"/>
<path fill-rule="evenodd" clip-rule="evenodd" d="M214.727,129.483c0.003-13.984-0.166-27.972,0.044-41.954
	c0.288-19.249,11.301-34.75,28.731-40.962c16.361-5.832,34.615-0.911,46.253,12.516c7.188,8.292,10.412,18.079,10.435,28.933
	c0.057,27.637,0.173,55.275-0.028,82.912c-0.165,22.643-15.941,40.958-36.95,43.472c-22.11,2.645-42.04-11.015-47.169-32.589
	c-0.951-4.001-1.214-8.236-1.261-12.371C214.627,156.124,214.723,142.803,214.727,129.483z"/>
</svg>
