<?xml version="1.0" encoding="utf-8"?>
<!-- Generator: Adobe Illustrator 16.0.0, SVG Export Plug-In . SVG Version: 6.00 Build 0)  -->
<!DOCTYPE svg PUBLIC "-//W3C//DTD SVG 1.1//EN" "http://www.w3.org/Graphics/SVG/1.1/DTD/svg11.dtd">
<svg version="1.1" id="Layer_1" xmlns="http://www.w3.org/2000/svg" xmlns:xlink="http://www.w3.org/1999/xlink" x="0px" y="0px"
	 width="500px" height="500px" viewBox="-218 -218 500 500" enable-background="new -218 -218 500 500" xml:space="preserve">
<path d="M148.828-24.755C124.511-45.607,95.33-51.858,59.185-37.264c-19.448,9.038-40.914,10.266-51.423,4.889
	c0,0-41.693-29.891-95.195,9.707c-53.5,39.614-48.632,143.833,12.51,223.047c18.768,23.628,36.837,40.995,76.441,23.628
	c27.79-10.423,46.568-9.727,64.629,0.696c18.059,10.417,40.979,13.199,65.309-15.987C155.785,179.527,233.588,66.273,148.828-24.755
	z"/>
<path d="M135.682-193.99C9.212-168.034,33.076-60.613,33.076-60.613C139.426-84.431,133.062-143.746,135.682-193.99z"/>
</svg>
