<?xml version="1.0" encoding="utf-8"?>
<!-- Generator: Adobe Illustrator 16.0.0, SVG Export Plug-In . SVG Version: 6.00 Build 0)  -->
<!DOCTYPE svg PUBLIC "-//W3C//DTD SVG 1.1//EN" "http://www.w3.org/Graphics/SVG/1.1/DTD/svg11.dtd">
<svg version="1.1" id="Layer_1" xmlns="http://www.w3.org/2000/svg" xmlns:xlink="http://www.w3.org/1999/xlink" x="0px" y="0px"
	 width="500px" height="500px" viewBox="0 0 500 500" enable-background="new 0 0 500 500" xml:space="preserve">
<g id="info">
</g>
<g id="icons">
	<path id="settings" d="M462.5,300l-25-14.584c-27.083-16.666-27.083-56.25,0-72.916l25-14.583
		c20.833-12.5,27.083-37.5,14.583-56.25L456.25,106.25c-12.5-20.833-37.5-27.083-56.25-14.583l-25,14.583
		c-27.083,16.667-62.5-4.167-62.5-35.417V41.667C312.5,18.75,293.75,0,270.834,0h-41.667C206.25,0,187.5,18.75,187.5,41.667V68.75
		c0,31.25-35.417,52.083-62.5,35.417l-25-12.5c-20.833-12.5-45.833-4.167-56.25,14.583l-20.833,35.417
		C12.5,162.5,18.75,187.5,37.5,200l25,14.583c27.083,14.583,27.083,56.25,0,70.833L37.5,300c-20.833,12.5-27.083,37.5-14.583,56.25
		l20.833,35.416C56.25,412.5,81.25,418.75,100,406.25l25-12.5c27.083-16.666,62.5,4.167,62.5,35.417v29.166
		c0,22.917,18.75,41.667,41.667,41.667h41.667c22.916,0,41.666-18.75,41.666-41.667V431.25c0-31.25,35.417-52.084,62.5-35.416
		l25,14.583c20.833,12.5,45.833,4.166,56.25-14.583l20.833-35.418C487.5,337.5,481.25,312.5,462.5,300z M250,333.334
		c-45.833,0-83.333-37.5-83.333-83.334c0-45.833,37.5-83.333,83.333-83.333c45.834,0,83.333,37.5,83.333,83.333
		C333.333,295.834,295.834,333.334,250,333.334z"/>
</g>
</svg>
