<?xml version="1.0" encoding="utf-8"?>
<!-- Generator: Adobe Illustrator 16.0.0, SVG Export Plug-In . SVG Version: 6.00 Build 0)  -->
<!DOCTYPE svg PUBLIC "-//W3C//DTD SVG 1.1//EN" "http://www.w3.org/Graphics/SVG/1.1/DTD/svg11.dtd">
<svg version="1.1" id="Layer_1" xmlns="http://www.w3.org/2000/svg" xmlns:xlink="http://www.w3.org/1999/xlink" x="0px" y="0px"
	 width="500px" height="500px" viewBox="0 0 500 500" enable-background="new 0 0 500 500" xml:space="preserve">
<g id="info">
</g>
<g id="icons">
	<g id="notification">
		<path d="M285.416,416.667H212.5c-14.583,0-27.083,16.666-18.75,31.25c12.5,18.75,33.333,31.25,56.25,31.25
			c22.916,0,43.75-12.5,54.166-31.25C312.5,433.333,302.084,416.667,285.416,416.667z"/>
		<path d="M454.167,347.916l-8.334-10.416c-33.333-43.75-50-95.833-50-150v-14.583c0-75-54.166-141.667-129.167-150
			c-87.5-10.417-162.5,58.333-162.5,143.75V187.5c0,54.167-16.667,106.25-50,150l-8.333,10.416c-4.167,4.168-6.25,12.5-4.167,16.668
			c6.25,18.75,22.917,31.25,41.667,31.25h333.333c18.75,0,35.416-12.5,39.583-31.25C458.333,358.334,456.25,352.084,454.167,347.916
			z"/>
	</g>
</g>
</svg>
