<?xml version="1.0" encoding="utf-8"?>
<!-- Generator: Adobe Illustrator 16.0.0, SVG Export Plug-In . SVG Version: 6.00 Build 0)  -->
<!DOCTYPE svg PUBLIC "-//W3C//DTD SVG 1.1//EN" "http://www.w3.org/Graphics/SVG/1.1/DTD/svg11.dtd">
<svg version="1.1" id="Layer_1" xmlns="http://www.w3.org/2000/svg" xmlns:xlink="http://www.w3.org/1999/xlink" x="0px" y="0px"
	 width="500px" height="500px" viewBox="0 0 500 500" enable-background="new 0 0 500 500" xml:space="preserve">
<path fill-rule="evenodd" clip-rule="evenodd" fill="#010101" d="M259.901,359.886c27.814-1.936,51.221-12.985,70.524-32.502
	c32.241-32.596,42.766-71.402,31.456-115.76c-4.043-15.855-14.071-28.459-25.488-39.869c-4.925-4.922-8.161-10.506-7.81-17.654
	c0.442-8.984,4.854-15.577,13.12-18.907c8.411-3.388,16.534-2.018,23.069,4.454c12.706,12.582,23.707,26.476,31.438,42.768
	c11.289,23.787,14.307,48.854,12.054,74.834c-2.791,32.186-14.183,60.981-34.56,85.947c-28.295,34.669-64.325,55.427-109.505,58.976
	c-1.982,0.155-3.954,0.455-5.978,0.693c-0.016,1.947,1.553,2.579,2.512,3.55c8.197,8.299,16.582,16.416,24.659,24.83
	c5.99,6.239,7.981,13.742,5.01,22.06c-2.948,8.25-9.016,12.994-17.665,14.188c-6.889,0.95-12.849-1.438-17.674-6.241
	c-25.629-25.511-51.153-51.128-76.793-76.628c-1.932-1.922-1.596-2.899,0.147-4.635c25.744-25.633,51.337-51.415,77.153-76.976
	c8.524-8.44,21.864-8.01,30.031,0.387c8.074,8.301,8.217,21.103,0.006,29.678c-8.408,8.782-17.097,17.298-25.652,25.94
	C259.872,359.104,259.931,359.332,259.901,359.886z"/>
<path fill-rule="evenodd" clip-rule="evenodd" fill="#010101" d="M240.493,83.853c-9.824-9.768-19.061-18.653-27.954-27.868
	c-11.368-11.779-6.634-30.55,8.882-35.274c8.536-2.599,15.941-0.237,22.266,6.127c19.027,19.151,38.155,38.203,57.244,57.294
	c6.127,6.127,12.174,12.338,18.425,18.336c2.068,1.985,1.951,3.094-0.053,5.086c-25.522,25.381-50.893,50.917-76.437,76.277
	c-8.77,8.707-22.068,8.585-30.386,0.15c-8.399-8.518-8.286-21.564,0.438-30.403c8.532-8.645,17.216-17.139,26.59-26.453
	c-8.36-0.343-15.655,1.017-22.548,3.206c-44.81,14.229-72.638,44.578-82.799,90.324c-4.875,21.949-3.795,44.002,5.898,64.906
	c5.46,11.774,13.712,21.53,22.704,30.749c7.783,7.979,8.837,19.151,2.893,27.766c-7.162,10.379-22.358,12.477-31.481,3.77
	c-25.106-23.961-41.286-52.459-44.374-87.728c-3.765-43.002,6.897-81.789,33.744-115.615
	c26.414-33.281,60.576-53.737,103.076-59.376C230.879,84.562,235.181,84.332,240.493,83.853z"/>
</svg>
