<?xml version="1.0" encoding="utf-8"?>
<!-- Generator: Adobe Illustrator 16.0.0, SVG Export Plug-In . SVG Version: 6.00 Build 0)  -->
<!DOCTYPE svg PUBLIC "-//W3C//DTD SVG 1.1//EN" "http://www.w3.org/Graphics/SVG/1.1/DTD/svg11.dtd">
<svg version="1.1" id="Layer_1" xmlns="http://www.w3.org/2000/svg" xmlns:xlink="http://www.w3.org/1999/xlink" x="0px" y="0px"
	 width="500px" height="500px" viewBox="0 0 500 500" enable-background="new 0 0 500 500" xml:space="preserve">
<path fill-rule="evenodd" clip-rule="evenodd" d="M186.979,253.586c50.174,51.3,98.706,100.926,147.253,150.538
	c4.65,4.756,9.49,9.331,14.074,14.15c9.374,9.861,12.468,20.887,1.688,31.104c-10.734,10.174-21.428,6.475-31.077-3.153
	c-34.539-34.477-69.181-68.852-103.803-103.246c-23.082-22.93-45.959-46.073-69.383-68.648c-13.479-12.99-13.4-24.519-0.063-37.671
	c57.387-56.593,114.477-113.489,171.558-170.39c9.942-9.912,20.899-16.068,32.665-4.753c12.924,12.429,5.746,24.081-4.583,34.33
	c-49.871,49.468-99.788,98.895-149.656,148.367C192.561,247.28,189.727,250.604,186.979,253.586z"/>
</svg>
