<?xml version="1.0" encoding="utf-8"?>
<!-- Generator: Adobe Illustrator 16.0.0, SVG Export Plug-In . SVG Version: 6.00 Build 0)  -->
<!DOCTYPE svg PUBLIC "-//W3C//DTD SVG 1.1//EN" "http://www.w3.org/Graphics/SVG/1.1/DTD/svg11.dtd">
<svg version="1.1" id="Layer_1" xmlns="http://www.w3.org/2000/svg" xmlns:xlink="http://www.w3.org/1999/xlink" x="0px" y="0px"
	 width="500px" height="500px" viewBox="0 0 500 500" enable-background="new 0 0 500 500" xml:space="preserve">
<path fill-rule="evenodd" clip-rule="evenodd" d="M250.614,462.063c-84.696-0.583-157.777-58.914-175.488-140.824
	c-9.594-44.371-1.226-84.941,23.784-122.826c28.362-42.963,61.882-81.36,99.363-116.432c11.065-10.354,22.369-20.49,34.04-30.148
	c10.848-8.977,24.388-8.965,35.391-0.278c7.835,6.185,15.266,12.914,22.594,19.706c36.738,34.046,71.417,69.958,100.003,111.332
	c14.899,21.565,28.895,43.526,34.733,69.677c9.01,40.354,2.823,78.467-16.948,114.366c-26.422,47.975-66.229,78.834-119.939,90.704
	C275.887,460.049,263.138,460.547,250.614,462.063z M249.123,409.606c7.767-0.676,14.823-0.72,21.656-1.979
	c43.392-7.99,75.293-31.635,94.45-71.457c12.31-25.586,16.137-52.38,6.655-79.891c-6.863-19.913-19.072-36.915-31.226-53.776
	c-24.563-34.078-54.374-63.436-84.548-92.418c-4.847-4.655-7.316-4.616-12.281,0.328c-16.167,16.101-32.566,31.992-48.213,48.589
	c-23.373,24.793-44.401,51.471-60.184,81.844c-4.333,8.34-8.291,17.243-10.293,26.354c-5.034,22.902-0.944,45.339,8.758,66.159
	C156.731,382.355,196.267,406.77,249.123,409.606z"/>
<path fill-rule="evenodd" clip-rule="evenodd" d="M262.521,383.156c-43-2.709-74.331-23.745-94.733-61.186
	c-5.297-9.721-9.152-20.279-13.095-30.671c-3.029-7.984-0.81-11.033,7.434-12.369c2.442-0.396,4.825-1.218,7.201-1.954
	c5.772-1.789,7.513-0.854,9.856,4.808c4.311,10.418,7.787,21.34,13.372,31.038c13.212,22.943,33.342,37.156,59.316,42.654
	c5.168,1.094,10.589,0.98,15.889,1.468c7.309,0.672,9.606,4.003,7.872,11.11c-0.381,1.563-0.635,3.289-0.389,4.852
	c1.234,7.863-0.893,10.5-8.73,10.441C265.182,383.338,263.852,383.223,262.521,383.156z"/>
</svg>
