<?xml version="1.0" encoding="utf-8"?>
<!-- Generator: Adobe Illustrator 16.0.0, SVG Export Plug-In . SVG Version: 6.00 Build 0)  -->
<!DOCTYPE svg PUBLIC "-//W3C//DTD SVG 1.1//EN" "http://www.w3.org/Graphics/SVG/1.1/DTD/svg11.dtd">
<svg version="1.1" id="Layer_1" xmlns="http://www.w3.org/2000/svg" xmlns:xlink="http://www.w3.org/1999/xlink" x="0px" y="0px"
	 width="500px" height="500px" viewBox="0 0 500 500" enable-background="new 0 0 500 500" xml:space="preserve">
<path fill-rule="evenodd" clip-rule="evenodd" d="M319.941,310.449c8.945-0.035,16.663-3.774,24.232-7.973
	c15.98-8.864,29.614-20.783,42.956-33.073c3.223-2.968,6.349-6.04,10.424-9.928c2.749,10.667,6.014,20.419,7.708,30.436
	c5.829,34.478-1.066,66.848-18.146,97.038c-20.024,35.399-49.911,59.203-88.546,71.245c-35.217,10.976-70.354,9.356-104.593-4.911
	c-35.813-14.924-62.436-40.003-79.614-74.607c-13.144-26.479-17.979-54.734-14.767-84.301c4.415-40.643,22.57-73.957,52.972-100.941
	c18.183-16.138,36.169-32.476,50.202-52.598c16.812-24.105,27.465-50.567,29.568-79.985c0.894-12.499,0.148-25.115,0.148-38.352
	c6.883,4.702,13.356,9.01,19.713,13.485c22.242,15.665,43.941,32.005,63.02,51.541c15.567,15.941,28.777,33.49,37,54.43
	c7.423,18.902,9.46,38.482,7.438,58.583c-3.655,36.369-18.577,68.776-35.348,100.532c-1.473,2.788-3.019,5.535-4.499,8.317
	C319.71,309.58,319.867,309.912,319.941,310.449z M267.652,99.51c-0.685,2.178-1.142,3.587-1.571,5.005
	c-6.534,21.579-16.534,41.429-29.46,59.884c-15.249,21.773-34.18,40.039-54.125,57.344c-33.644,29.189-48.386,65.59-40.607,109.786
	c9.269,52.657,55.287,92.208,110.525,92.361c33.681,0.094,62.22-12.638,84.97-37.71c11.975-13.196,20.267-28.43,25.079-46.359
	c-2.777,1.276-4.958,2.308-7.162,3.284c-10.983,4.866-22.302,8.057-34.45,8.644c-22.794,1.104-42.639-16.988-43.126-39.805
	c-0.181-8.477,2.328-16.148,6.378-23.489c12.194-22.096,24.155-44.31,31.026-68.807c4.345-15.487,6.388-31.204,3.242-47.146
	C312.172,141.083,291.295,119.769,267.652,99.51z"/>
</svg>
