<?xml version="1.0" encoding="utf-8"?>
<!-- Generator: Adobe Illustrator 16.0.0, SVG Export Plug-In . SVG Version: 6.00 Build 0)  -->
<!DOCTYPE svg PUBLIC "-//W3C//DTD SVG 1.1//EN" "http://www.w3.org/Graphics/SVG/1.1/DTD/svg11.dtd">
<svg version="1.1" id="Layer_1" xmlns="http://www.w3.org/2000/svg" xmlns:xlink="http://www.w3.org/1999/xlink" x="0px" y="0px"
	 width="500px" height="500px" viewBox="0 0 500 500" enable-background="new 0 0 500 500" xml:space="preserve">
<path fill-rule="evenodd" clip-rule="evenodd" d="M420.587,122.802c-8.924-25.667-33.619-44.56-61.126-44.701
	c-80.157-0.409-160.321-0.48-240.477,0.038c-28.614,0.186-52.333,19.179-61.431,46.559c-8.392,25.252,0.843,55.229,21.02,73.268
	c4.876,4.36,9.018,12.396,9.108,18.804c0.73,51.562,0.39,103.139,0.416,154.709c0.018,31.76,11.513,43.038,43.833,43.061
	c35.314,0.021,70.629,0.004,105.943,0.004c36.996,0,73.993,0.044,110.99-0.013c29.895-0.047,42.103-12.064,42.136-41.53
	c0.055-52.131-0.303-104.267,0.425-156.39c0.089-6.427,4.229-14.458,9.097-18.87C421.439,178.782,429.873,149.513,420.587,122.802z
	 M369.803,176.671c-10.099,5.291-12.662,11.5-12.574,22.205c0.496,59.954,0.24,119.915,0.24,180.992c-78.673,0-156.292,0-235.831,0
	c0-60.902-0.246-120.346,0.22-179.785c0.087-11.101-2.292-18.083-13.023-23.674c-17.512-9.125-24.337-25.271-19.829-40.266
	c4.614-15.352,18.441-24.579,37.881-24.605c75.188-0.1,150.377-0.108,225.563,0.009c19.467,0.029,32.597,9.138,37.354,25.109
	C394.354,151.923,387.769,167.26,369.803,176.671z"/>
</svg>
