<?xml version="1.0" encoding="utf-8"?>
<!-- Generator: Adobe Illustrator 16.0.0, SVG Export Plug-In . SVG Version: 6.00 Build 0)  -->
<!DOCTYPE svg PUBLIC "-//W3C//DTD SVG 1.1//EN" "http://www.w3.org/Graphics/SVG/1.1/DTD/svg11.dtd">
<svg version="1.1" id="Layer_1" xmlns="http://www.w3.org/2000/svg" xmlns:xlink="http://www.w3.org/1999/xlink" x="0px" y="0px"
	 width="500px" height="500px" viewBox="0 0 500 500" enable-background="new 0 0 500 500" xml:space="preserve">
<path fill-rule="evenodd" clip-rule="evenodd" d="M324.667,237.332c0.414,7.679-5.184,12.868-8.945,16.721
	c-19.937,20.403-40.23,40.455-60.403,60.626c-8.036,8.036-17.344,13.006-26.671,3.43c-9.284-9.531-4.046-18.728,3.959-26.709
	c20.605-20.545,40.768-41.564,62.075-61.35c4.492-4.172,11.4-6.429,17.653-5.385C316.618,225.381,324.312,230.745,324.667,237.332z"
	/>
<path fill-rule="evenodd" clip-rule="evenodd" d="M176.209,306.929c-26.202-12.224-51.721-9.585-74.343,7.62
	c-19.5,14.832-28.239,35.088-22.698,60.412c7.04,32.179,24.317,58.979,44.132,84.172c12.494,15.884,33.566,15.19,45.25-1.981
	c13.74-20.192,25.821-41.655,36.94-63.427c5.041-9.872,6.03-21.814,8.234-30.388C210.515,336.066,198.937,317.53,176.209,306.929z
	 M144.5,389c-12.426,0-22.5-10.073-22.5-22.5s10.074-22.5,22.5-22.5s22.5,10.073,22.5,22.5S156.926,389,144.5,389z"/>
<path fill-rule="evenodd" clip-rule="evenodd" d="M385.951,93.497c-46.303,1.461-80.426,40.582-64.558,81.072
	c10.878,27.758,26.686,53.96,43.054,79.054c10.106,15.494,32.298,15.108,42.591-0.516c15.891-24.125,32.38-49.005,41.853-75.942
	C464.146,133.789,432.151,93.921,385.951,93.497z M386,183.5c-12.426,0-22.5-10.073-22.5-22.5s10.074-22.5,22.5-22.5
	s22.5,10.073,22.5,22.5S398.426,183.5,386,183.5z"/>
</svg>
