<?xml version="1.0" encoding="utf-8"?>
<!-- Generator: Adobe Illustrator 16.0.0, SVG Export Plug-In . SVG Version: 6.00 Build 0)  -->
<!DOCTYPE svg PUBLIC "-//W3C//DTD SVG 1.1//EN" "http://www.w3.org/Graphics/SVG/1.1/DTD/svg11.dtd">
<svg version="1.1" id="Layer_1" xmlns="http://www.w3.org/2000/svg" xmlns:xlink="http://www.w3.org/1999/xlink" x="0px" y="0px"
	 width="500px" height="500px" viewBox="0 0 500 500" enable-background="new 0 0 500 500" xml:space="preserve">
<path fill-rule="evenodd" clip-rule="evenodd" d="M283.382,69.604c-1.815,15.897,0.229,14.008,11.507,17.04
	c13.318,3.581,26.112,9.487,38.677,15.363c6.397,2.993,10.695,2.802,15.245-2.625c3.766-4.493,8.191-8.436,12.361-12.586
	c10.168-10.119,22.662-11.598,33.191-2.113c12.856,11.58,24.918,24.112,36.627,36.871c6.948,7.568,6.069,19.582-0.816,28.213
	c-3.083,3.864-6.439,7.545-9.97,11.006c-3.533,3.46-7.438,6.542-11.155,9.764c5.197,11.566,10.286,21.709,14.397,32.232
	c34.515,88.331-6.323,192.63-91.512,234.136c-105.345,51.327-226.144,0.735-263.508-110.36
	c-23.991-71.332-0.202-153.366,57.885-201.74c22.073-18.382,46.623-31.636,74.489-37.901c10.478-2.355,13.515-6.837,10.515-17.336
	c-16.027-3.475-23.298-14.001-22.321-31.167c0.933-16.403,8.366-25.635,24.944-26.181c22.583-0.744,45.229-0.71,67.814,0.017
	c14.857,0.478,23.001,9.327,24.696,24.106C308.433,53.599,301.375,63.941,283.382,69.604z M246.91,409.622
	c78.145-0.145,141.836-62.213,141.654-139.481c-0.19-81.274-63.376-142.021-140.68-142.967
	c-77.208-0.946-141.648,63.781-141.479,141.018C106.58,347.133,168.804,409.77,246.91,409.622z"/>
<path fill-rule="evenodd" clip-rule="evenodd" d="M347.195,334.653c-32.27-21.012-64.117-41.689-95.843-62.553
	c-1.734-1.139-3.499-3.803-3.511-5.765c-0.205-37.989-0.152-75.98-0.152-115.185c42.397,1.648,75.905,18.585,98.723,53.477
	C374.197,247.113,372.084,290.676,347.195,334.653z"/>
</svg>
