<?xml version="1.0" encoding="utf-8"?>
<!-- Generator: Adobe Illustrator 16.0.0, SVG Export Plug-In . SVG Version: 6.00 Build 0)  -->
<!DOCTYPE svg PUBLIC "-//W3C//DTD SVG 1.1//EN" "http://www.w3.org/Graphics/SVG/1.1/DTD/svg11.dtd">
<svg version="1.1" id="Layer_1" xmlns="http://www.w3.org/2000/svg" xmlns:xlink="http://www.w3.org/1999/xlink" x="0px" y="0px"
	 width="500px" height="500px" viewBox="0 0 500 500" enable-background="new 0 0 500 500" xml:space="preserve">
<path fill-rule="evenodd" clip-rule="evenodd" d="M468.061,195.015c-1.244,8.905-2.732,18.083-3.655,27.317
	c-0.207,2.074,1.049,4.806,2.514,6.448c6.461,7.238,6.945,15.301,0.267,22.289c-1.961,2.051-5.273,3.273-8.171,3.855
	c-4.093,0.822-7.709,1.846-10.049,5.625c-12.39,20.016-29.242,36.313-45.375,53.063c-45.313,47.051-91.179,93.57-136.86,140.266
	c-10.284,10.514-17.58,10.52-28.103,0.217c-55.017-53.859-110.032-107.721-165.031-161.598c-9.566-9.371-18.07-19.588-24.311-31.525
	c-1.613-3.087-3.518-5.694-7.387-5.852c-9.962-0.404-15.782-15.715-9.607-23.322c3.279-4.041,3.728-7.892,2.861-12.879
	c-7.341-42.27,5.456-78.703,33.675-109.922c19.679-21.771,44.905-33.603,73.862-38.226c27.094-4.326,52.8-0.705,76.857,12.3
	c9.31,5.033,17.82,11.611,26.415,17.87c3.567,2.598,5.867,2.839,9.366-0.27c17.619-15.65,37.649-27.135,61.107-30.925
	c44.01-7.11,82.928,3.524,114.886,35.578c18.138,18.194,29.287,40.265,33.967,65.477
	C466.739,178.615,467.132,186.625,468.061,195.015z M272.032,231.347c4.67-8.209,11.618-9.633,19.274-9.449
	c0.666,0.016,1.333,0.006,2,0.014c43.82,0.505,87.641,1.005,131.461,1.521c6.915,0.081,7.592-0.406,9.038-7.116
	c3.908-18.13,3.308-36.032-2.825-53.627c-16.275-46.691-66.821-73.061-114.574-60.097c-21.235,5.766-38.029,17.783-52.026,34.398
	c-2.224,2.64-5.58,4.888-8.857,5.967c-7.973,2.625-13.584-1.878-18.686-7.396c-16.892-18.274-36.846-31.032-62.167-33.761
	c-26.979-2.908-52.064,2.637-72.962,20.241c-29.899,25.187-41.761,57.551-34.551,96.415c0.672,3.625,2.484,4.864,6.191,4.708
	c12.816-0.54,25.644-0.95,38.469-1.038c4.149-0.028,6.859-1.516,9.194-4.751c7.016-9.726,14.202-19.329,21.297-28.997
	c9.461-12.891,18.849-25.836,28.366-38.685c5.509-7.438,11.829-9.828,19.438-7.504c6.829,2.085,9.648,7.668,11.797,13.82
	c6.307,18.052,12.695,36.076,18.937,54.15c1.313,3.8,2.918,4.794,6.394,2.127c4.223-3.239,8.634-6.253,13.107-9.144
	c12.422-8.027,22.696-4.098,26.693,10.121C268.646,218.976,270.199,224.702,272.032,231.347z M413.604,256.476
	c-0.331-0.45-0.663-0.9-0.994-1.352c-0.813-0.049-1.626-0.133-2.439-0.141c-35.83-0.369-71.661-0.65-107.488-1.197
	c-4.456-0.068-6.453,1.424-7.949,5.514c-3.595,9.832-7.484,19.572-11.727,29.143c-2.164,4.881-6.064,8.254-11.865,8.695
	c-9.282,0.709-15.097-3.762-18.013-14.316c-3.883-14.051-7.606-28.145-11.552-42.795c-5.73,3.896-11.004,7.631-16.427,11.139
	c-12.158,7.862-22.208,4.492-27.053-9.104c-5.695-15.979-11.243-32.011-16.882-48.011c-0.341-0.967-0.915-1.852-1.579-3.167
	c-1.538,2.067-2.734,3.65-3.906,5.252c-11.215,15.324-22.674,30.479-33.541,46.047c-5.847,8.377-13.442,11.865-23.328,11.713
	c-10.331-0.158-20.666-0.049-30.999-0.016c-1.198,0.004-2.394,0.26-4.779,0.535c55.742,58.174,112.144,114.07,169.673,168.645
	c0.976-0.717,1.277-0.881,1.507-1.117c45.962-46.896,91.921-93.795,137.855-140.719c0.907-0.928,1.496-2.16,2.279-3.217
	c2.233-3.008,4.274-6.195,6.788-8.951C405.154,264.708,409.447,260.654,413.604,256.476z"/>
</svg>
