<?xml version="1.0" encoding="utf-8"?>
<!-- Generator: Adobe Illustrator 16.0.0, SVG Export Plug-In . SVG Version: 6.00 Build 0)  -->
<!DOCTYPE svg PUBLIC "-//W3C//DTD SVG 1.1//EN" "http://www.w3.org/Graphics/SVG/1.1/DTD/svg11.dtd">
<svg version="1.1" id="Layer_1" xmlns="http://www.w3.org/2000/svg" xmlns:xlink="http://www.w3.org/1999/xlink" x="0px" y="0px"
	 width="500px" height="500px" viewBox="0 0 500 500" enable-background="new 0 0 500 500" xml:space="preserve">
<path fill-rule="evenodd" clip-rule="evenodd" d="M170.075,185.059c-11.912,28.151-23.687,56.36-35.787,84.432
	c-7.238,16.799-56.358,29.311-69.521,16.711c-3.086-2.953,0.335-12.946,1.376-19.604c0.11-0.696,4.585-1.498,6.721-0.976
	c37.326,9.132,46.282-16.532,55.955-43.708c9.808-27.568,21.676-54.455,33.754-81.132c3.179-7.025,7.818-18.903,15.875-18.205
	c7.916,0.687,10.938,13.017,12.244,20.275c11.385,63.145,21.775,126.468,32.532,189.728c1.706,10.035,3.769,20.007,6.867,36.321
	c18.044-53.521,34.144-101.28,50.245-149.037c1.52-4.493,2.845-9.196,4.813-13.315c1.853-3.878,5.704-9.917,11.52-9.878
	c5.876,0.039,10.838,5.122,12.747,10.148c11.508,30.331,22.046,61.027,32.976,91.58c1.566,4.389,3.476,8.655,6.205,15.398
	c3.075-4.688,5.21-7.368,6.737-10.359c21.142-41.501,23.485-43.12,68.613-37.576c5.461,0.671,14.758,5.173,15.055,11.473
	c0.293,6.22-9.957,11.81-13.563,11.042c-35.278-7.506-47.29,14.71-56.352,41.755c-1.496,4.478-3.752,8.203-6.28,12.758
	c-3.922,7.065-8.855,18.171-16.939,17.455c-8.173-0.724-10.832-12.93-13.674-20.378c-11.535-30.226-22.045-60.843-34.74-96.375
	c-19.193,56.89-36.748,108.921-54.303,160.95c-1.518,4.492-2.115,9.645-4.766,13.317c-3.759,5.205-7.162,14.437-13.648,13.902
	c-6.486-0.534-9.986-10.11-11.057-15.897c-8.404-45.17-15.896-90.511-23.546-135.82c-5.265-31.216-10.346-62.468-15.513-93.703
	C173.109,185.912,171.59,185.486,170.075,185.059z"/>
</svg>
