<?xml version="1.0" encoding="utf-8"?>
<!-- Generator: Adobe Illustrator 16.0.0, SVG Export Plug-In . SVG Version: 6.00 Build 0)  -->
<!DOCTYPE svg PUBLIC "-//W3C//DTD SVG 1.1//EN" "http://www.w3.org/Graphics/SVG/1.1/DTD/svg11.dtd">
<svg version="1.1" id="Layer_1" xmlns="http://www.w3.org/2000/svg" xmlns:xlink="http://www.w3.org/1999/xlink" x="0px" y="0px"
	 width="500px" height="500px" viewBox="0 0 500 500" enable-background="new 0 0 500 500" xml:space="preserve">
<path fill-rule="evenodd" clip-rule="evenodd" fill="#16B687" d="M168.465,379.376c0.93-1.052,1.749-2.082,2.673-3.007
	c25.095-25.108,50.164-50.244,75.323-75.288c11.212-11.161,28.064-8.811,34.875,4.696c4.163,8.256,2.877,17.544-3.869,24.401
	c-8.506,8.646-17.284,17.026-25.944,25.521c0.248,0.57,0.497,1.141,0.746,1.711c7.957-1.587,16.223-2.282,23.82-4.909
	c43.099-14.901,70.046-44.889,79.742-89.354c5.133-23.542,4.272-47.318-8.118-68.859c-5.572-9.688-13.238-18.28-20.611-26.801
	c-9.744-11.261-8.262-26.687,3.897-33.969c8.24-4.936,18.957-3.618,26.175,3.515c22.894,22.627,38.872,49.078,42.479,81.575
	c6.161,55.5-10.938,102.715-52.109,140.778c-24.067,22.25-52.534,35.247-85.064,39.29c-4.052,0.504-8.134,0.759-13.327,1.231
	c9.608,9.613,18.423,18.398,27.198,27.223c5.611,5.643,8.433,12.206,6.792,20.34c-3.06,15.163-20.552,22.174-33.116,13.181
	c-1.348-0.965-2.617-2.069-3.791-3.241c-25.357-25.317-50.697-50.653-76.032-75.993
	C169.624,380.837,169.135,380.167,168.465,379.376z"/>
<path fill-rule="evenodd" clip-rule="evenodd" fill="#16B687" d="M232.632,80.946c-9.976-9.916-19.205-18.771-28.067-27.979
	c-11.364-11.808-6.52-30.713,9.014-35.277c8.344-2.451,15.679-0.256,21.89,5.987c19.156,19.256,38.382,38.445,57.608,57.632
	c6.718,6.705,13.516,13.329,20.477,20.186c-0.896,1.18-1.472,2.149-2.243,2.921c-25.32,25.348-50.606,50.73-76.02,75.985
	c-10.452,10.386-26.553,8.653-33.844-3.38c-5.142-8.487-3.97-18.777,3.23-26.152c7.798-7.989,15.767-15.812,23.653-23.715
	c0.775-0.777,1.499-1.606,2.99-3.213c-11.05,0.385-20.821,2.069-30.02,5.778c-43.152,17.397-69.22,48.897-76.348,95.075
	c-5.24,33.944,3.614,63.744,29.072,87.643c12.65,11.876,8.248,32.591-8.382,36.965c-7.593,1.996-14.5,0.299-20.275-5.247
	c-33.526-32.196-48.381-71.445-43.529-117.688c6.417-61.156,38.431-104.675,93.006-131.89
	C192.461,85.79,211.642,82.305,232.632,80.946z"/>
</svg>
