<?xml version="1.0" encoding="utf-8"?>
<!-- Generator: Adobe Illustrator 16.0.0, SVG Export Plug-In . SVG Version: 6.00 Build 0)  -->
<!DOCTYPE svg PUBLIC "-//W3C//DTD SVG 1.1//EN" "http://www.w3.org/Graphics/SVG/1.1/DTD/svg11.dtd">
<svg version="1.1" id="Layer_1" xmlns="http://www.w3.org/2000/svg" xmlns:xlink="http://www.w3.org/1999/xlink" x="0px" y="0px"
	 width="500px" height="500px" viewBox="0 0 500 500" enable-background="new 0 0 500 500" xml:space="preserve">
<path fill-rule="evenodd" clip-rule="evenodd" d="M401.387,118.488c-7.705-5.388-14.56-12.731-20.019-20.443
	c-16.795-23.712-46.463-34.464-73.539-25.565c-29.339,9.644-46.807,34.561-45.429,64.809c1.335,29.378-12.156,43.528-41.598,43.24
	c-54.486,1.452-99.636,23.32-134.228,65.003c-39.569,47.676-35.883,109.212,7.472,155.187
	c44.462,47.146,105.872,54.632,155.663,16.787c46.778-35.553,69.823-84.001,69.993-142.955c0.057-19.639,19.04-39.075,36.323-36.738
	c31.669,4.282,60.731-12.379,71.396-40.927C438.2,168.032,427.291,136.611,401.387,118.488z M282.52,282.729
	c-2.065,43.646-20.5,80.118-56.159,105.903c-34.915,25.248-73.576,19.54-104.931-13.314c-29.909-31.343-33.565-71.449-7.595-104.3
	c26.692-33.765,62.506-51.201,96.319-53.157C261.08,217.975,284.49,241.021,282.52,282.729z M393.725,180.874
	c-4.26,15.105-22.063,27.104-34.319,18.586c-22.135-15.386-31.521,0.223-43.725,12.343c-3.025,3.009-6.227,5.84-9.235,8.648
	c-8.988-9.388-16.621-17.358-25.325-26.45c2.131-2.436,5.393-6.695,9.191-10.402c11.601-11.323,25.561-19.866,11.504-40.7
	c-8.817-13.066,1.896-30.126,17.022-35.279c14.267-4.863,31.112,3.44,34.372,19.425c2.631,12.909,8.474,18.051,21.091,20.706
	C389.291,150.909,397.566,167.232,393.725,180.874z"/>
</svg>
