<?xml version="1.0" encoding="utf-8"?>
<!-- Generator: Adobe Illustrator 16.0.0, SVG Export Plug-In . SVG Version: 6.00 Build 0)  -->
<!DOCTYPE svg PUBLIC "-//W3C//DTD SVG 1.1//EN" "http://www.w3.org/Graphics/SVG/1.1/DTD/svg11.dtd">
<svg version="1.1" id="Layer_1" xmlns="http://www.w3.org/2000/svg" xmlns:xlink="http://www.w3.org/1999/xlink" x="0px" y="0px"
	 width="500px" height="500px" viewBox="0 0 500 500" enable-background="new 0 0 500 500" xml:space="preserve">
<path fill-rule="evenodd" clip-rule="evenodd" d="M229.287,77.493c50.59,1.271,93.075,20.139,126.786,58.279
	c20.021,22.651,32.777,48.886,38.365,78.459c1.965,10.401,2.479,21.117,3.07,31.722c0.374,6.716-2.398,12.402-8.976,15.205
	c-6.649,2.833-13.147,2.439-18.988-2.261c-4.302-3.462-5.536-8.249-5.576-13.488c-0.184-24.188-6.193-46.852-18.709-67.529
	c-21.46-35.454-52.604-57.553-93.536-64.524c-41.599-7.084-78.707,3.75-110.722,31.19c-24.999,21.428-40.149,48.781-44.918,81.23
	c-5.987,40.737,4.726,77.145,31.65,108.44c21.474,24.96,48.854,39.645,81.222,44.998c6.495,1.074,13.165,1.214,19.767,1.487
	c6.61,0.273,12.201,2.252,15.313,8.478c3.21,6.425,2.835,12.901-1.208,18.834c-3.31,4.857-8.446,6.39-14.094,6.382
	c-19.807-0.026-39.064-3.387-57.559-10.414c-41.791-15.88-72.742-43.992-92.964-83.794c-8.593-16.913-13.914-34.922-16.055-53.812
	c-5.329-47.021,6.676-89.2,36.334-125.992c24.467-30.35,55.964-49.997,94.085-58.688C204.622,78.95,216.853,77.503,229.287,77.493z"
	/>
<path fill-rule="evenodd" clip-rule="evenodd" d="M323.43,330.2c-9.733,0-18.694,0.06-27.653-0.018
	c-7.801-0.067-13.604-4.657-15.418-11.994c-2.043-8.263,0.744-16.06,7.422-19.44c2.506-1.27,5.533-2.09,8.331-2.11
	c22.551-0.166,45.104-0.142,67.657-0.062c6.303,0.023,11.648,2.084,14.625,8.235c3.369,6.965,3.673,13.683-2.08,19.548
	c-11.55,11.772-23.239,23.407-34.885,35.085c-1.262,1.265-2.618,2.435-3.707,4.464c1.144,0,2.288,0,3.432,0
	c7.63,0,15.261-0.024,22.89,0.006c10.058,0.039,16.703,6.825,16.736,17.043c0.032,9.767-6.825,16.587-16.803,16.6
	c-21.991,0.027-43.982,0.013-65.975,0.006c-8.527-0.002-13.702-3.424-16.969-11.158c-3.051-7.221-0.631-13.052,4.55-18.225
	c11.672-11.653,23.328-23.322,34.988-34.989C321.353,332.408,322.1,331.594,323.43,330.2z"/>
<path fill-rule="evenodd" clip-rule="evenodd" d="M262.968,221.208c0.001,7.516-0.144,15.036,0.045,22.547
	c0.158,6.259-2.142,11.215-6.544,15.578c-16.413,16.261-32.702,32.646-49.048,48.975c-6.548,6.541-16.188,6.965-22.703,1.029
	c-7.306-6.655-8.276-16.499-1.629-23.654c8.085-8.703,16.704-16.912,25.105-25.323c6.184-6.189,12.336-12.414,18.618-18.502
	c1.737-1.684,2.509-3.363,2.487-5.842c-0.125-13.797-0.123-27.596-0.022-41.394c0.055-7.401,4.418-13.022,11.458-15.25
	c6.814-2.157,14.711,0.144,18.792,5.525c2.94,3.879,3.393,8.455,3.426,13.09C263.008,205.728,262.967,213.468,262.968,221.208z"/>
</svg>
