<?xml version="1.0" encoding="utf-8"?>
<!-- Generator: Adobe Illustrator 16.0.0, SVG Export Plug-In . SVG Version: 6.00 Build 0)  -->
<!DOCTYPE svg PUBLIC "-//W3C//DTD SVG 1.1//EN" "http://www.w3.org/Graphics/SVG/1.1/DTD/svg11.dtd">
<svg version="1.1" id="Layer_1" xmlns="http://www.w3.org/2000/svg" xmlns:xlink="http://www.w3.org/1999/xlink" x="0px" y="0px"
	 width="500px" height="500px" viewBox="0 0 500 500" enable-background="new 0 0 500 500" xml:space="preserve">
<path fill-rule="evenodd" clip-rule="evenodd" d="M189.533,448.065c0-49.366,0-98.405,0-147.908c-10.649,0-21.136,0-31.865,0
	c0-38.881,0-77.3,0-116.042c8.33,0,16.758,0,25.485,0c0,29.836,0,59.608,0,89.832c10.77,0,21.262,0,32.194,0
	c0,49.673,0,98.896,0,148.313c13.013,0,25.582,0,38.633,0c0-49.218,0-98.438,0-148.036c10.992,0,21.513,0,32.463,0
	c0-30.238,0-60.101,0-90.195c8.637,0,16.84,0,25.272,0c0,38.546,0,76.972,0,115.887c-10.474,0-20.966,0-31.796,0
	c0,49.617,0,98.747,0,148.15C249.713,448.065,219.854,448.065,189.533,448.065z"/>
<path fill-rule="evenodd" clip-rule="evenodd" d="M234.542,131.958c-25.106-0.061-45.056-20.289-44.983-45.612
	c0.069-24.095,20.733-44.516,45.1-44.568c24.894-0.054,45.226,20.527,45.117,45.666
	C279.667,112.066,259.392,132.018,234.542,131.958z M215.469,86.575c0.001,11.031,8.271,19.602,19.017,19.706
	c10.59,0.103,19.413-8.444,19.492-18.882c0.083-10.876-8.4-19.658-19.072-19.744C224.295,67.57,215.469,76.161,215.469,86.575z"/>
<path fill-rule="evenodd" clip-rule="evenodd" fill="#FFFFFF" d="M215.469,86.575c0-10.414,8.826-19.005,19.438-18.919
	c10.672,0.086,19.155,8.867,19.072,19.744c-0.079,10.438-8.902,18.985-19.492,18.882C223.74,106.177,215.47,97.606,215.469,86.575z"
	/>
</svg>
