<?xml version="1.0" encoding="utf-8"?>
<!-- Generator: Adobe Illustrator 16.0.0, SVG Export Plug-In . SVG Version: 6.00 Build 0)  -->
<!DOCTYPE svg PUBLIC "-//W3C//DTD SVG 1.1//EN" "http://www.w3.org/Graphics/SVG/1.1/DTD/svg11.dtd">
<svg version="1.1" id="Layer_1" xmlns="http://www.w3.org/2000/svg" xmlns:xlink="http://www.w3.org/1999/xlink" x="0px" y="0px"
	 width="500px" height="500px" viewBox="0 0 500 500" enable-background="new 0 0 500 500" xml:space="preserve">
<path fill-rule="evenodd" clip-rule="evenodd" d="M339.59,458.723c-18.869,0.001-37.738-0.057-56.606,0.016
	c-21.45,0.082-39.823-7.628-54.864-22.605c-59.853-59.604-119.427-119.486-179.329-179.04c-8.599-8.549-5.243-20.604,4.772-23.49
	c4.426-1.275,8.106,0.174,11.547,2.676c1.298,0.943,2.372,2.202,3.518,3.348c58.797,58.786,117.594,117.571,176.383,176.364
	c10.811,10.812,23.506,16.462,39.125,16.329c39.063-0.331,78.129-0.135,117.193-0.09c10.506,0.012,16.429,8.472,13.057,18.408
	c-1.771,5.218-6.178,8.059-12.883,8.07C380.866,458.746,360.229,458.722,339.59,458.723z"/>
<path fill-rule="evenodd" clip-rule="evenodd" d="M418.287,34c-2.064,0-4.13,0-6.194,0c-3.434,2.689-7.185,5.062-10.255,8.119
	c-31.339,31.21-62.608,62.491-93.813,93.837c-18.236,18.32-27.953,40.426-28.836,66.335c-0.039,1.145-0.229,2.284-0.375,3.675
	c-7.979,0.097-15.347-1.835-22.344-4.842c-28.63-12.302-49.31-32.672-61.498-61.471c-2.286-5.402-2.209-5.371,3.095-8.021
	c21.489-10.741,38.512-26.359,51.018-46.883c5.588-9.171,11.175-18.345,16.755-27.521c5.88-9.67,3.757-17.95-5.946-23.228
	c-2.359,0-4.719,0-7.079,0c-2.268,1.731-5.251,3.008-6.684,5.269c-7.323,11.558-14.106,23.456-21.343,35.07
	c-8.991,14.431-21.226,25.403-36.219,33.252c-9.641-9.841-16.916-9.739-26.107,0.469c-8.481,9.419-16.736,19.043-25.082,28.583
	c-21.163,24.192-42.356,48.359-63.461,72.603c-6.063,6.965-5.683,15.356,0.787,21.778c55.684,55.271,111.386,110.52,167.076,165.784
	c14.625,14.513,32.292,21.939,52.822,22.044c35.393,0.182,70.787,0.064,106.182,0.041c8.323-0.006,12.918-3.722,14.712-11.745
	c1.729-7.745,3.445-15.493,5.137-23.246c3.135-14.358,0.313-27.19-9.877-38.09c-3.899-4.172-8.079-6.732-14.45-6.683
	c-41.88,0.326-83.765,0.257-125.646,0.014c-3.674-0.021-7.994-1.369-10.857-3.59c-4.88-3.784-4.723-9.728-2.822-15.052
	c1.924-5.391,6.473-7.77,12.183-7.772c23.743-0.008,47.487-0.008,71.229-0.011c1.511,0,3.022,0,4.973,0
	c-3.864-3.98-6.996-7.514-10.483-10.652c-1.44-1.298-3.633-2.446-5.502-2.477c-13.269-0.209-26.543-0.11-39.815-0.111
	c-15.633-0.001-31.266,0.06-46.897-0.034c-7.687-0.046-12.285-4.084-13.021-11.041c-1.042-9.852,3.934-15.467,13.911-15.488
	c22.71-0.046,45.422-0.015,68.133-0.016c1.558,0,3.114,0,5.43,0c-6.913-18.139-7.497-36.542-8.464-54.905
	c-0.096-1.797-1.252-3.527-1.843-5.313c-0.62-1.876-1.698-3.799-1.64-5.672c0.664-21.224,8.267-39.497,23.407-54.579
	c31.444-31.324,62.873-62.664,94.127-94.177c2.517-2.539,4.553-6.284,5.224-9.774C429.376,40.976,424.286,36.995,418.287,34z
	 M182.979,272.914c-18.386,0.05-33.067-14.589-33.181-33.084c-0.112-18.301,14.682-33.209,33.021-33.277
	c18.265-0.067,33.125,14.748,33.208,33.109C216.108,257.972,201.308,272.863,182.979,272.914z"/>
</svg>
