<?xml version="1.0" encoding="utf-8"?>
<!-- Generator: Adobe Illustrator 16.0.0, SVG Export Plug-In . SVG Version: 6.00 Build 0)  -->
<!DOCTYPE svg PUBLIC "-//W3C//DTD SVG 1.1//EN" "http://www.w3.org/Graphics/SVG/1.1/DTD/svg11.dtd">
<svg version="1.1" id="Layer_1" xmlns="http://www.w3.org/2000/svg" xmlns:xlink="http://www.w3.org/1999/xlink" x="0px" y="0px"
	 width="500px" height="500px" viewBox="0 0 500 500" enable-background="new 0 0 500 500" xml:space="preserve">
<path fill-rule="evenodd" clip-rule="evenodd" d="M312.653,80.825c-1.573,11.316-3.053,22.164-4.594,33.002
	c-3.509,24.685-7.053,49.365-10.571,74.049c-1.36,9.546-2.461,19.137-4.135,28.626c-0.783,4.437,0.784,6.607,4.492,8.672
	c38.83,21.619,77.517,43.495,116.377,65.06c16.978,9.422,31.491,21.279,40.241,38.959c21.035,42.499,7.148,97.564-41.049,120.196
	c-22.572,10.599-45.544,10.927-68.901,2.684c-86.559-30.547-173.129-61.06-259.738-91.465c-4.092-1.437-5.337-3.08-4.436-7.562
	c6.713-33.383,13.512-66.757,19.506-100.272c3.598-20.115,5.861-40.472,8.608-60.736c2.927-21.584,5.739-43.184,8.559-64.783
	c1.851-14.182,3.709-28.364,5.372-42.569c0.371-3.171,1.626-4.219,4.754-4.216c60.989,0.065,121.979,0.051,182.968,0.064
	C310.751,80.536,311.395,80.677,312.653,80.825z M199.715,213.361c-16.827,0-33.655,0.106-50.48-0.078
	c-3.994-0.043-5.531,1.177-5.929,5.259c-1.146,11.748-2.144,23.562-4.276,35.152c-4.627,25.149-9.83,50.196-15.046,75.233
	c-0.795,3.815,0.177,5.397,3.675,6.629c76.997,27.11,153.963,54.31,230.944,81.464c19.852,7.002,37.903,3.424,53.32-10.635
	c24.076-21.957,19.211-61.936-9.385-78.479c-15.261-8.828-30.932-16.944-46.248-25.679c-3.872-2.209-5.771-1.346-8.013,2.059
	c-6.409,9.732-13.263,19.175-19.576,28.968c-2.479,3.848-4.508,3.834-7.938,1.37c-7.029-5.05-14.166-9.983-21.54-14.505
	c-4.469-2.74-4.432-5.227-1.603-9.166c5.339-7.435,10.279-15.155,15.39-22.755c5.372-7.986,5.372-7.979-2.8-12.6
	c-1.448-0.818-2.973-1.557-4.273-2.573c-3.396-2.652-5.56-2.039-7.936,1.687c-8.502,13.335-17.426,26.4-25.977,39.704
	c-2.246,3.492-4.173,3.957-7.578,1.541c-7.33-5.201-14.776-10.262-22.41-15.001c-3.793-2.355-3.998-4.374-1.561-7.932
	c8.373-12.224,16.403-24.682,24.728-36.939c2.191-3.229,2.104-5.229-1.648-6.952c-3.167-1.454-6.35-3.063-9.096-5.165
	c-1.375-1.052-2.643-3.439-2.488-5.084c0.621-6.608,1.412-13.259,2.93-19.708c1.221-5.189-0.783-5.923-5.207-5.88
	C233.037,213.457,216.375,213.361,199.715,213.361z M268.977,118.993c-1.721-0.329-2.355-0.557-2.992-0.558
	c-35.312-0.029-70.624-0.023-105.936-0.076c-3.167-0.004-4.318,1.463-4.684,4.48c-1.92,15.842-3.896,31.679-6.088,47.485
	c-0.559,4.027,0.528,5.277,4.626,5.262c33.979-0.126,67.959-0.106,101.94-0.022c3.66,0.009,5.391-1.149,5.877-4.985
	c1.419-11.208,3.2-22.371,4.802-33.556C267.365,131.141,268.128,125.246,268.977,118.993z"/>
<path fill-rule="evenodd" clip-rule="evenodd" d="M147.999,459.963c-20,0.001-40-0.105-59.999,0.087
	c-4.25,0.041-5.892-0.969-5.72-5.538c0.351-9.32,0.245-18.666,0.035-27.994c-0.08-3.57,1.224-4.546,4.626-4.539
	c41,0.084,82,0.083,123,0.001c3.507-0.007,5.171,0.855,5.087,4.74c-0.204,9.495-0.198,19.001-0.001,28.497
	c0.079,3.816-1.458,4.822-5.029,4.802C189.332,459.902,168.666,459.962,147.999,459.963z"/>
</svg>
