<?xml version="1.0" encoding="utf-8"?>
<!-- Generator: Adobe Illustrator 16.0.0, SVG Export Plug-In . SVG Version: 6.00 Build 0)  -->
<!DOCTYPE svg PUBLIC "-//W3C//DTD SVG 1.1//EN" "http://www.w3.org/Graphics/SVG/1.1/DTD/svg11.dtd">
<svg version="1.1" id="Layer_1" xmlns="http://www.w3.org/2000/svg" xmlns:xlink="http://www.w3.org/1999/xlink" x="0px" y="0px"
	 width="500px" height="500px" viewBox="0 0 500 500" enable-background="new 0 0 500 500" xml:space="preserve">
<path fill-rule="evenodd" clip-rule="evenodd" d="M216.63,198.766c-10.815,5.282-20.815,9.552-30.115,15.014
	c-3.625,2.129-5.959,6.764-8.365,10.582c-2.511,3.988-4.144,8.524-6.612,12.542c-7.112,11.577-22.497,15.907-34.691,9.988
	c-12.219-5.932-18.784-20.747-14.2-33.305c9.851-26.982,26.665-47.575,54.413-57.786c14.556-5.356,28.817-11.796,43.728-15.845
	c30.456-8.271,59.928-5.947,86.397,13.082c17.465,12.557,29.426,29.351,36.097,49.858c2.286,7.028,4.52,14.079,7.077,21.01
	c0.631,1.713,2.15,3.488,3.74,4.389c6.424,3.64,13.297,6.533,19.521,10.465c12.507,7.901,16.615,24.185,9.732,36.622
	c-7.165,12.949-22.138,17.965-35.937,11.633c-8.328-3.821-16.557-7.942-24.495-12.513c-12.09-6.959-19.561-17.788-24.045-30.817
	c-1.333-3.875-2.649-7.757-4.851-11.693c-1.635,6.313-3.31,12.618-4.898,18.943c-2.944,11.717-5.798,23.455-8.782,35.161
	c-0.707,2.772-0.316,4.808,1.785,7.047c11.15,11.881,21.931,24.112,33.161,35.914c9.008,9.468,14.987,20.264,17.987,33.049
	c5.531,23.58,11.64,47.021,17.453,70.535c4.349,17.59-4.914,32.413-22.342,35.892c-13.804,2.755-27.455-6.601-31.369-21.834
	c-5.114-19.896-10.06-39.836-14.93-59.794c-2.659-10.899-7.81-20.295-15.438-28.531c-16.404-17.716-32.664-35.569-48.905-53.437
	c-14.446-15.891-19.03-34.281-13.679-55.133c3.929-15.304,7.791-30.627,11.663-45.946
	C216.01,202.752,216.135,201.606,216.63,198.766z"/>
<path fill-rule="evenodd" clip-rule="evenodd" d="M190.243,315.67c13.058,14.34,25.743,28.4,38.616,42.287
	c2.346,2.532,2.814,4.595,1.413,7.782c-3.386,7.703-5.852,15.851-9.686,23.308c-3.678,7.151-7.702,14.518-13.164,20.285
	c-16.386,17.307-33.461,33.968-50.432,50.712c-15.989,15.776-41.185,9.638-47.087-11.418c-2.565-9.153-1.078-17.819,5.482-24.839
	c9.398-10.056,19.227-19.713,28.916-29.496c28.299-28.575,22.338-20.937,37.105-56.665
	C184.438,330.289,187.338,322.897,190.243,315.67z"/>
<path fill-rule="evenodd" clip-rule="evenodd" d="M247.78,66.343c-0.1-22.835,18.489-41.745,41.168-41.879
	c23.054-0.137,41.831,18.453,41.929,41.51c0.098,23.07-18.689,42.031-41.562,41.948C266.543,107.84,247.878,89.155,247.78,66.343z"
	/>
</svg>
